<svg xmlns="http://www.w3.org/2000/svg" width="200" height="31" viewBox="0 0 649.324 99.992"><path fill="#272838" d="M339.27 23.382V1.932h4.16v21.19c0 7.96 4.28 12.445 11.286 12.445 6.805 0 11.114-4.115 11.114-12.186V1.935H370v21.14c0 10.754-6.175 16.334-15.395 16.334-9.12 0-15.334-5.58-15.335-16.026M379.855 1.93h3.9l23.25 29.58V1.93h4.055v36.9h-3.32L383.91 8.575V38.83h-4.056m42.01-36.9h4.17v36.898h-4.17V1.93zm11.816 0h4.63l13.135 31.786L464.61 1.93h4.484l-15.86 37.16h-3.69m26.832-37.16h26.67v3.805H480.54V18.33h20.13v3.79h-20.13v12.92h22.76v3.79h-26.924m35.308-36.897h15.875c4.533 0 8.163 1.37 10.482 3.69 1.79 1.8 2.85 4.374 2.85 7.273v.1c0 6.12-4.22 9.706-10.02 10.766l11.335 15.07h-5.115l-10.7-14.34h-10.54v14.34h-4.17v-36.9h.002zm15.5 18.824c5.535 0 9.49-2.85 9.49-7.595v-.11c0-4.524-3.476-7.27-9.436-7.27h-11.386v14.975h11.332zm20.196 12.7l2.58-3.056c3.844 3.477 7.533 5.21 12.644 5.21 4.96 0 8.23-2.633 8.23-6.273v-.1c0-3.425-1.85-5.37-9.596-7.01-8.48-1.84-12.39-4.58-12.39-10.64v-.11c0-5.8 5.124-10.07 12.13-10.07 5.374 0 9.224 1.53 12.968 4.53l-2.42 3.216c-3.44-2.79-6.86-4-10.66-4-4.794 0-7.854 2.64-7.854 5.95v.11c0 3.474 1.895 5.425 10.025 7.164 8.218 1.79 12.003 4.8 12.003 10.44v.105c0 6.326-5.27 10.43-12.59 10.43-5.85.002-10.65-1.95-15.074-5.894M596.4 1.678h3.9l16.805 37.154h-4.475l-4.325-9.755h-20.08l-4.365 9.755h-4.274L596.4 1.678zm10.275 23.61l-8.38-18.77-8.44 18.77h16.82zM624.38 1.93h4.18v33.06h20.765v3.84H624.38M339.375 62.167h14.545c8.65 0 14.02 4.914 14.02 12.34v.104c0 8.276-6.64 12.596-14.755 12.596h-7.33v11.86h-6.48v-36.9zm14.02 19.19c4.9 0 7.956-2.734 7.956-6.585v-.104c0-4.33-3.103-6.59-7.953-6.59h-7.54v13.28h7.54-.002zm30.575-19.443h6.004l16.24 37.153h-6.845l-3.75-8.91h-17.447l-3.8 8.91h-6.636l16.23-37.153h.003zm9.28 22.503l-6.38-14.754-6.326 14.754h12.706zm24.35.11l-14.65-22.36h7.69l10.27 16.29 10.454-16.29h7.415L424.133 84.36v14.706H417.6m26.884-36.9h6.896l11.23 17.46 11.222-17.46h6.91v36.898h-6.48V72.61L462.61 89.998h-.215L450.86 72.712v26.353h-6.376m45.746-36.898h27.354v5.805H496.72v9.594h18.504v5.79H496.72v9.915h21.133v5.796H490.23m35.32-36.9h6.012l19.76 25.52v-25.52h6.378v36.898h-5.425l-20.35-26.25v26.25h-6.374m50.714-30.886H564.56v-6.01h29.94v6.01h-11.7v30.89h-6.536m21.82-5.378l3.903-4.635c3.525 3.055 7.11 4.79 11.646 4.79 4.005 0 6.535-1.885 6.535-4.64v-.1c0-2.646-1.47-4.062-8.325-5.642-7.855-1.896-12.29-4.215-12.29-11.014v-.106c0-6.325 5.28-10.704 12.6-10.704 5.38 0 9.65 1.646 13.39 4.64l-3.484 4.905c-3.32-2.474-6.636-3.79-10.01-3.79-3.786 0-5.996 1.945-5.996 4.37v.11c0 2.84 1.67 4.115 8.79 5.8 7.805 1.89 11.804 4.68 11.804 10.8v.11c0 6.9-5.43 11.01-13.18 11.01-5.635 0-10.966-1.95-15.385-5.905M266.663 2.757V97.24c0 1.525-1.236 2.756-2.767 2.756l-27.81-.006c-1.52 0-2.76-1.225-2.76-2.75V2.757c0-1.525 1.23-2.76 2.75-2.76l27.814.005c1.532 0 2.772 1.23 2.772 2.755m-105.52 49.056c0 18.65 10.41 24.655 28.485 24.655h30.31c1.525 0 2.755 1.22 2.755 2.75 0 .38-.06.725-.22 1.08l-8.34 18.033c-.46.98-1.47 1.66-2.615 1.66l-27.2.007c-42.18 0-61.228-17.315-61.228-46.63V46.72C123.09 17.41 142.136.1 184.316.1h27.2c1.145 0 2.154.688 2.614 1.667l8.34 18.045c.16.344.22.69.22 1.065 0 1.525-1.228 2.76-2.754 2.76l-30.31.01c-18.074 0-28.484 5.99-28.484 24.634v3.533zM2.77 99.993c-1.515 0-2.77-1.22-2.77-2.76 0-.216.03-.67.31-1.276L44.33 1.58C44.78.663 45.72.01 46.812.01H76.44c1.54 0 2.754 1.254 2.754 2.764 0 .36-.05.73-.19 1.04L34.88 98.408c-.44.934-1.396 1.584-2.5 1.584H2.77zm90.572 0c-1.005 0-2.05-.56-2.51-1.596l-19.35-41.424c-.175-.365-.274-.775-.274-1.2 0-.193 0-.715.3-1.25l14.88-31.89c.42-.904 1.36-1.55 2.475-1.55 1.096 0 2.05.646 2.495 1.576l34.23 73.4c.184.398.254.805.254 1.17 0 1.525-1.244 2.76-2.77 2.76H93.34v.002zm540.898-3.495c.025.455.125.82.31 1.105.346.525.95.79 1.82.79.39 0 .745-.06 1.07-.175.62-.225.93-.625.93-1.205 0-.436-.135-.74-.395-.926-.265-.18-.686-.34-1.25-.475l-1.045-.244c-.686-.156-1.17-.336-1.455-.525-.49-.33-.735-.83-.735-1.49 0-.72.245-1.305.726-1.766.48-.46 1.165-.69 2.05-.69.814 0 1.505.206 2.07.606.57.404.854 1.05.854 1.935h-1.015c-.056-.425-.165-.755-.335-.98-.315-.415-.85-.624-1.605-.624-.61 0-1.05.135-1.32.4-.265.27-.4.58-.4.934 0 .39.16.676.476.855.206.12.676.26 1.406.436l1.08.253c.524.125.925.29 1.21.506.495.374.734.913.734 1.618 0 .886-.314 1.516-.94 1.896s-1.35.57-2.18.57c-.965 0-1.725-.25-2.27-.76-.55-.505-.814-1.186-.805-2.046h1.015zm6.68-5.398h1.544l2.29 6.74 2.28-6.74h1.534v7.97h-1.03v-4.706c0-.16 0-.43.01-.805.005-.377.01-.78.01-1.21l-2.275 6.72h-1.07l-2.3-6.72v.243c0 .195.01.49.02.89s.016.695.016.88v4.705h-1.03V91.1z"/></svg>